<?xml version="1.0" encoding="UTF-8" standalone="no"?>
<svg
   width="300"
   height="300"
   viewBox="0 0 300 300"
   version="1.1"
   id="svg2"
   sodipodi:docname="stevio-logo.svg"
   inkscape:export-filename="stevio-logo.png"
   inkscape:export-xdpi="96"
   inkscape:export-ydpi="96"
   inkscape:version="1.4.3 (0d15f75, 2025-12-25)"
   xmlns:inkscape="http://www.inkscape.org/namespaces/inkscape"
   xmlns:sodipodi="http://sodipodi.sourceforge.net/DTD/sodipodi-0.dtd"
   xmlns="http://www.w3.org/2000/svg"
   xmlns:svg="http://www.w3.org/2000/svg">
  <defs
     id="defs2" />
  <sodipodi:namedview
     id="namedview2"
     pagecolor="#ffffff"
     bordercolor="#000000"
     borderopacity="0.25"
     inkscape:showpageshadow="2"
     inkscape:pageopacity="0.0"
     inkscape:pagecheckerboard="0"
     inkscape:deskcolor="#d1d1d1"
     inkscape:zoom="2.9333333"
     inkscape:cx="118.97727"
     inkscape:cy="171.13636"
     inkscape:window-width="1707"
     inkscape:window-height="1381"
     inkscape:window-x="5213"
     inkscape:window-y="30"
     inkscape:window-maximized="0"
     inkscape:current-layer="g3"
     inkscape:export-bgcolor="#ffffff00" />
  <g
     id="g3">
    <path
       id="rect1"
       style="fill:#001f3f"
       d="m 50,0 h 200 c 27.7,0 50,22.3 50,50 v 200 c 0,27.7 -22.3,50 -50,50 H 50 C 22.3,300 0,277.7 0,250 V 50 C 0,22.3 22.3,0 50,0 Z" />
    <g
       id="g5"
       transform="translate(0,7.9999904)">
      <path
         d="m 59.985336,219.76318 q -0.71598,0.84211 -1.166783,1.07895 -0.424285,0.23684 -1.060711,0.23684 -1.246337,0 -2.015353,-0.81578 -0.742499,-0.84212 -0.742499,-2.76317 v -3.63158 q 0,-1.94737 0.742499,-2.76315 0.769016,-0.84211 2.015353,-0.84211 0.95464,0 1.591067,0.5 0.662945,0.5 1.007677,1.68422 0.344731,1.15789 0.71598,1.57894 0.769016,0.81579 2.731333,1.6579 1.962317,0.8421 4.295883,0.8421 3.632939,0 5.966506,-1.68421 1.484996,-1.02632 1.484996,-2.52632 0,-1 -0.715981,-1.86842 -0.71598,-0.89473 -2.333566,-1.47369 -1.060712,-0.39472 -4.746685,-1.07894 -4.45499,-0.81579 -6.735521,-1.97368 -2.280531,-1.1579 -3.606421,-3.26316 -1.32589,-2.10527 -1.32589,-4.55263 0,-3.86842 3.261689,-6.76316 3.26169,-2.92105 8.485695,-2.92105 2.094907,0 3.871599,0.47368 1.80321,0.44737 3.261689,1.39474 1.060712,-1.02632 2.121424,-1.02632 1.193301,0 1.935799,0.8421 0.769017,0.8158 0.769017,2.73685 v 4.05263 q 0,1.94737 -0.769017,2.78947 -0.742498,0.81579 -1.935799,0.81579 -1.007677,0 -1.750174,-0.60526 -0.583392,-0.44737 -0.875088,-1.78947 -0.291696,-1.34211 -0.742498,-1.92105 -0.769016,-1.00001 -2.307048,-1.68422 -1.538033,-0.68421 -3.553385,-0.68421 -2.943476,0 -4.667133,1.36842 -1.697139,1.34211 -1.697139,2.81579 0,1 0.689462,1.94737 0.715981,0.92105 2.068389,1.44737 0.901605,0.36843 5.064899,1.18421 4.189812,0.81579 6.417308,1.78948 2.254013,0.97368 3.739009,3.05262 1.484997,2.07896 1.484997,4.94738 0,4 -2.837404,6.39473 -3.765528,3.15789 -9.599444,3.15789 -2.254012,0 -4.401954,-0.55263 -2.121424,-0.52631 -4.136777,-1.60526 z M 99.178643,202.6316 v 10.8158 q 0,1.73683 0.71598,2.28947 1.113747,0.86842 3.977677,0.86842 4.16328,0 7.69015,-1.76316 1.35241,-0.68422 2.12143,-0.68422 1.06071,0 1.82973,0.78948 0.79553,0.78948 0.79553,1.92105 0,1.05264 -0.84857,1.81579 -1.29937,1.23685 -5.14445,2.28947 -3.81857,1.02632 -6.44382,1.02632 -5.064907,0 -7.610616,-2.15789 -2.51919,-2.18421 -2.51919,-5.34211 V 202.6316 h -1.962317 q -1.962318,0 -2.810887,-0.73684 -0.822052,-0.76315 -0.822052,-1.97369 0,-1.1842 0.822052,-1.92105 0.848569,-0.76315 2.810887,-0.76315 h 1.962317 v -4.86842 q 0,-1.94737 0.742498,-2.76316 0.769016,-0.84211 1.988835,-0.84211 1.193301,0 1.935799,0.84211 0.769017,0.81579 0.769017,2.76316 v 4.86842 h 10.050247 q 1.96232,0 2.78436,0.76315 0.84857,0.73685 0.84857,1.94737 0,1.18422 -0.84857,1.94737 -0.82204,0.73684 -2.78436,0.73684 z m 47.572927,9.28947 H 124.4501 q 0.84857,2.10527 2.99652,3.39475 2.17446,1.28947 5.86042,1.28947 3.02304,0 8.03491,-1.28947 2.06838,-0.52633 2.86392,-0.52633 1.08722,0 1.82972,0.76316 0.7425,0.76317 0.7425,1.92106 0,1.05263 -0.79553,1.78948 -1.06071,0.97368 -5.17098,1.86841 -4.11025,0.86842 -7.90229,0.86842 -6.52339,0 -10.44803,-3.65789 -3.89811,-3.65789 -3.89811,-9 0,-5.68421 4.21633,-9.23684 4.24285,-3.57895 9.75855,-3.57895 3.31473,0 6.07258,1.15789 2.78437,1.1579 4.13678,2.5 1.90928,1.94737 3.15561,4.8158 0.84857,1.99999 0.84857,4.63157 z m -6.01954,-5.39473 q -1.24634,-2.31579 -3.26169,-3.44736 -2.01535,-1.15791 -4.79971,-1.15791 -2.75786,0 -4.77321,1.15791 -2.01535,1.13157 -3.28821,3.44736 z m 24.95326,6.73684 7.87578,-18.63157 h -1.24634 q -1.96231,0 -2.81088,-0.73685 -0.82206,-0.76316 -0.82206,-1.97368 0,-1.21053 0.82206,-1.94737 0.84857,-0.76316 2.81088,-0.76316 l 7.29239,0.0263 q 1.96232,0 2.78437,0.73685 0.84858,0.73684 0.84858,1.94737 0,1.44736 -1.27286,2.28947 -0.60991,0.42106 -2.49267,0.42106 l -11.164,26.49999 h -5.224 l -11.13747,-26.49998 q -1.90929,0 -2.5192,-0.42106 -1.27286,-0.81579 -1.27286,-2.28947 0,-1.21053 0.84857,-1.94737 0.82206,-0.76316 2.78438,-0.76316 l 7.34542,0.0263 q 1.93581,0 2.75785,0.73685 0.84857,0.73684 0.84857,1.94737 0,1.21052 -0.82204,1.97368 -0.82206,0.73685 -2.78438,0.73685 h -1.27285 z m 34.55268,-26.26316 v 5.71052 h -6.47034 v -5.71052 z m 0.7425,10.23685 v 18.5 h 6.52338 q 1.96231,0 2.78437,0.76315 0.84857,0.73685 0.84857,1.94737 0,1.18422 -0.84857,1.94737 -0.82206,0.73684 -2.78437,0.73684 h -18.48291 q -1.96231,0 -2.81088,-0.73684 -0.82206,-0.76315 -0.82206,-1.97369 0,-1.1842 0.82206,-1.92105 0.84857,-0.76315 2.81088,-0.76315 h 6.52338 V 202.6316 h -4.37543 q -1.9358,0 -2.78437,-0.73684 -0.84857,-0.76315 -0.84857,-1.97369 0,-1.1842 0.82205,-1.92105 0.84857,-0.76315 2.81089,-0.76315 z m 44.01954,12.39473 q 0,3.10527 -1.75016,6.02632 -1.72366,2.89474 -5.17098,4.63158 -3.42079,1.71052 -7.1598,1.71052 -3.7125,0 -7.10677,-1.68421 -3.39428,-1.71052 -5.17097,-4.63157 -1.7767,-2.92106 -1.7767,-6.10526 0,-3.23686 1.80322,-6.34212 1.8032,-3.13157 5.17096,-4.92105 3.39428,-1.78947 7.08026,-1.78947 3.71249,0 7.13328,1.8421 3.44732,1.81579 5.1975,4.92106 1.75016,3.07894 1.75016,6.3421 z m -5.43614,0.0263 q 0,-2.60527 -1.88277,-4.78948 -2.57222,-2.94737 -6.76203,-2.94737 -3.68598,0 -6.15214,2.34211 -2.46615,2.34211 -2.46615,5.42105 0,2.52632 2.49267,4.73685 2.49268,2.18421 6.12562,2.18421 3.65945,0 6.15213,-2.18421 2.49267,-2.21053 2.49267,-4.76316 z"
         id="text2"
         style="font-weight:bold;font-size:54.1012px;font-family:'Courier New', monospace;text-anchor:middle;fill:#ffffff;stroke-width:0.983658"
         aria-label="SteVio" />
      <g
         id="g2"
         transform="translate(5.0000002,2)">
        <g
           id="g4"
           transform="translate(10)">
          <path
             d="m 115.70997,88.8216 -42.07646,25.25713 v -8.26904 L 107.38468,85.727742 73.63351,65.139527 v -8.100281 l 42.07646,25.032119 z"
             id="text1"
             style="font-weight:900;font-size:115.204px;font-family:monospace;fill:#39cccc;stroke-width:0.960026"
             transform="scale(0.95065412,1.0519073)"
             aria-label="&gt;" />
          <path
             id="rect2"
             style="font-weight:900;font-family:monospace;fill:#39cccc;stroke-width:0.894427"
             d="m 120,96 h 80 v 25 h -80 z" />
        </g>
      </g>
    </g>
  </g>
</svg>
